<svg width="171" height="17" viewBox="0 0 171 17" fill="none" xmlns="http://www.w3.org/2000/svg">
<path d="M17.6966 0.0078125H22.8343L19.4092 16.43H10.5729L7.85532 3.43714H4.82415L7.68648 4.26172L5.13772 16.4377H0L3.42515 0.015519H12.2855L15.0031 13.0084L17.6966 0.015519V0.0078125Z" fill="black"/>
<path d="M38.5689 16.43H26.7015C26.2432 16.43 25.8251 16.3376 25.4392 16.1603C25.0532 15.9831 24.7397 15.7365 24.4824 15.4359C24.2331 15.1277 24.0482 14.7809 23.9276 14.3802C23.815 13.9794 23.799 13.571 23.8794 13.1471L26.6211 0.0078125H31.7588L29.3146 11.7831L26.4522 12.6077H36.0925C36.2211 12.6077 36.3417 12.5615 36.4463 12.4767C36.5508 12.3919 36.6231 12.284 36.6553 12.1607L39.2041 0.0078125H44.3418L41.383 14.226C41.2543 14.8811 40.9247 15.4128 40.394 15.8212C39.8634 16.2297 39.2523 16.43 38.5689 16.43Z" fill="black"/>
<path d="M46.9871 0.0078125H64.4586L63.6546 3.83016H54.9148L57.7771 4.65474L55.3088 16.43H49.6083L52.2294 3.83016H46.1831L46.9871 0.0078125Z" fill="black"/>
<path d="M76.9694 11.7831H70.706L69.7251 16.43H64.5874L68.0125 0.0078125H84.5111C84.9694 0.0078125 85.3875 0.100289 85.7735 0.277535C86.1594 0.454781 86.473 0.701384 86.7302 1.00193C86.9795 1.31019 87.1644 1.65697 87.285 2.04229C87.3976 2.43531 87.4137 2.83604 87.3333 3.25989L86.0147 9.57139C85.886 10.211 85.5564 10.7428 85.0338 11.1512C84.5111 11.5673 83.9081 11.7754 83.2247 11.7754H82.1232L84.3021 16.4223H79.1644L76.9855 11.7754L76.9694 11.7831ZM80.7403 7.93764C80.8689 7.93764 80.9895 7.89911 81.094 7.82205C81.1986 7.74499 81.2709 7.6448 81.3031 7.5138L81.9141 4.4852C81.9463 4.31566 81.9141 4.16153 81.8016 4.03053C81.697 3.89952 81.5523 3.83016 81.3754 3.83016H69.3312L72.1694 4.65474L71.4859 7.93764H80.7403Z" fill="black"/>
<path d="M88.3784 16.43L91.8036 0.0078125H96.9413L96.1373 3.83016H93.1302L95.9684 4.65474L93.5242 16.43H88.3865H88.3784Z" fill="black"/>
<path d="M99.5867 0.0078125H117.058L116.254 3.83016H107.514L110.377 4.65474L107.908 16.43H102.208L104.829 3.83016H98.7827L99.5867 0.0078125Z" fill="black"/>
<path d="M117.179 16.43L120.604 0.0078125H125.742L124.938 3.83016H121.93L124.769 4.65474L122.324 16.43H117.187H117.179Z" fill="black"/>
<path d="M144.323 0.00770652C144.765 0.00770652 145.175 0.100183 145.561 0.277429C145.947 0.454675 146.268 0.701279 146.526 1.00183C146.783 1.31008 146.976 1.65686 147.088 2.04218C147.201 2.43521 147.209 2.83594 147.113 3.25979L144.837 14.2182C144.709 14.8733 144.379 15.405 143.848 15.8134C143.318 16.2219 142.707 16.4222 142.023 16.4222H129.593C129.135 16.4222 128.716 16.3298 128.331 16.1525C127.945 15.9753 127.631 15.7287 127.374 15.4281C127.116 15.1276 126.94 14.7731 126.827 14.3723C126.714 13.9716 126.698 13.5632 126.779 13.1393L129.078 2.20402C129.207 1.54898 129.537 1.01724 130.059 0.608802C130.582 0.200366 131.185 0 131.868 0H144.323V0.00770652ZM130.839 3.83005L133.701 4.65463L132.182 11.9525C132.15 12.1221 132.19 12.2762 132.302 12.4072C132.415 12.5382 132.56 12.6076 132.745 12.6076H143.052L140.214 11.783L141.734 4.4851C141.766 4.31556 141.726 4.16143 141.613 4.03042C141.5 3.89941 141.348 3.83005 141.171 3.83005H130.839Z" fill="black"/>
<path d="M165.862 0.0078125H171L167.575 16.43H158.738L156.021 3.43714H152.99L155.852 4.26172L153.303 16.4377H148.166L151.591 0.015519H160.451L163.169 13.0084L165.862 0.015519V0.0078125Z" fill="black"/>
</svg>
