<svg width="61" height="17" viewBox="0 0 61 17" fill="none" xmlns="http://www.w3.org/2000/svg">
<path d="M17.5999 0C18.0421 0 18.4522 0.0924762 18.8381 0.269722C19.224 0.446968 19.5456 0.693571 19.8029 0.994119C20.0602 1.30237 20.2532 1.64916 20.3657 2.03448C20.4783 2.4275 20.4864 2.82823 20.3899 3.25208L18.1145 14.2105C17.9858 14.8655 17.6562 15.3973 17.1255 15.8057C16.5949 16.2142 15.9838 16.4145 15.3004 16.4145H2.86213C2.40383 16.4145 1.98574 16.322 1.59981 16.1448C1.21387 15.9676 0.900304 15.7209 0.643016 15.4204C0.393769 15.1121 0.208843 14.7654 0.0882391 14.3646C-0.0243243 13.9639 -0.0404048 13.5555 0.0399977 13.1316L2.34755 2.20402C2.47619 1.54898 2.80584 1.01724 3.32846 0.608801C3.85108 0.200365 4.45409 0 5.13752 0H17.5919H17.5999ZM4.1164 3.82235L6.97873 4.64693L5.45913 11.9448C5.42696 12.1144 5.45913 12.2685 5.57973 12.3995C5.69229 12.5305 5.83702 12.5999 6.02194 12.5999H16.3295L13.4913 11.7753L15.0109 4.47739C15.0431 4.30785 15.0029 4.15372 14.8903 4.02271C14.7778 3.89171 14.625 3.82235 14.4481 3.82235H4.1164Z" fill="black"/>
<path d="M26.903 11.937C26.8708 12.1066 26.903 12.2607 27.0236 12.3917C27.1361 12.5227 27.2809 12.5921 27.4658 12.5921H31.7512C32.0487 12.5921 32.2337 12.4456 32.3141 12.1451L33.8819 4.63912L36.7201 3.81454H29.1301L29.9341 -0.0078125H39.9684L37.0096 14.2104C36.8809 14.8654 36.5513 15.3972 36.0287 15.8056C35.506 16.2141 34.903 16.4144 34.2196 16.4144H24.306C23.8477 16.4144 23.4296 16.3219 23.0437 16.1447C22.6577 15.9674 22.3442 15.7208 22.0869 15.4203C21.8376 15.112 21.6527 14.7653 21.5321 14.3645C21.4195 13.9638 21.4034 13.5554 21.4838 13.1315L22.119 10.126H27.2567L26.8869 11.9293L26.903 11.937Z" fill="black"/>
<path d="M41.0453 12.8078L41.3106 11.4901H46.4483L46.3519 11.937C46.3197 12.1066 46.3519 12.2607 46.4725 12.3917C46.585 12.5227 46.7297 12.5921 46.9147 12.5921H56.5549L53.6926 11.7675L53.9579 10.5036C53.9901 10.3341 53.9499 10.18 53.8373 10.049C53.7248 9.91796 53.572 9.84861 53.3951 9.84861H45.4674C44.977 9.84861 44.5187 9.74842 44.1006 9.54035C43.6825 9.33228 43.3287 9.07027 43.0473 8.73889C42.7659 8.40752 42.5729 8.02991 42.4443 7.59065C42.3237 7.15138 42.3076 6.69671 42.4041 6.22662L43.184 2.40427C43.3287 1.703 43.6905 1.12502 44.2694 0.670346C44.8483 0.215672 45.5157 -0.0078125 46.2634 -0.0078125H57.568C58.0585 -0.0078125 58.5168 0.09237 58.9348 0.300441C59.361 0.500806 59.7067 0.770529 59.9881 1.1019C60.2615 1.43327 60.4705 1.81089 60.5992 2.24244C60.7278 2.674 60.7439 3.12096 60.6474 3.59105L60.3499 4.92425H55.2122L55.3087 4.47728C55.3409 4.30774 55.3006 4.15362 55.1881 4.02261C55.0755 3.8916 54.9228 3.82224 54.7459 3.82224H45.0011L47.8393 4.64682L47.6463 5.63323C47.6142 5.80277 47.6463 5.9569 47.7669 6.08791C47.8795 6.21892 48.0242 6.28827 48.2091 6.28827H55.8956L56.362 6.31139C56.8363 6.34222 57.2625 6.46552 57.6484 6.67359C58.0343 6.88166 58.3559 7.15138 58.6132 7.48276C58.8705 7.81413 59.0635 8.18404 59.176 8.60018C59.2886 9.01632 59.2967 9.44788 59.2002 9.90255L58.3479 14.01C58.2032 14.7113 57.8414 15.2893 57.2625 15.744C56.6836 16.1986 56.0162 16.4221 55.2685 16.4221H44.0845C43.594 16.4221 43.1358 16.3219 42.7177 16.1139C42.2996 15.9058 41.9458 15.6438 41.6644 15.3124C41.383 14.981 41.19 14.6034 41.0614 14.1642C40.9408 13.7249 40.9247 13.2702 41.0212 12.8078H41.0453Z" fill="black"/>
</svg>
