<svg width="28" height="28" viewBox="0 0 28 28" fill="none" xmlns="http://www.w3.org/2000/svg">
<path d="M10.9216 10.6839L4.77555 11.3652C4.55389 11.392 4.35789 11.5402 4.28439 11.7654C4.21089 11.9905 4.28439 12.225 4.44772 12.3732C6.27472 14.0404 9.01989 16.537 9.01989 16.537C9.01755 16.537 8.26622 20.1689 7.76689 22.592C7.74309 22.7017 7.75169 22.816 7.79165 22.9208C7.83161 23.0257 7.90121 23.1167 7.99196 23.1827C8.08271 23.2487 8.1907 23.2869 8.30278 23.2927C8.41487 23.2984 8.5262 23.2715 8.62322 23.215C10.7746 21.9924 13.9969 20.1537 13.9969 20.1537L19.3682 23.2162C19.5642 23.3235 19.8092 23.3212 19.9994 23.1824C20.0899 23.1164 20.1594 23.0257 20.1998 22.9212C20.2401 22.8168 20.2495 22.7029 20.2269 22.5932L18.9774 16.537L23.5496 12.3767C23.6324 12.3014 23.6917 12.2038 23.7204 12.0956C23.7492 11.9874 23.7462 11.8733 23.7117 11.7668C23.6772 11.6603 23.6128 11.566 23.5261 11.4952C23.4394 11.4244 23.3341 11.3801 23.2229 11.3675C20.7636 11.0922 17.0757 10.6839 17.0757 10.6839L14.5289 5.04888C14.4827 4.94697 14.4081 4.86053 14.3141 4.7999C14.22 4.73927 14.1105 4.70703 13.9986 4.70703C13.8867 4.70703 13.7772 4.73927 13.6832 4.7999C13.5892 4.86053 13.5146 4.94697 13.4684 5.04888L10.9216 10.6839Z" fill="#FDD835"/>
</svg>
